<?xml version="1.0" standalone="no"?><!DOCTYPE svg PUBLIC "-//W3C//DTD SVG 1.1//EN" "http://www.w3.org/Graphics/SVG/1.1/DTD/svg11.dtd"><svg t="1690777004602" class="icon" viewBox="0 0 2538 1024" version="1.1" xmlns="http://www.w3.org/2000/svg" p-id="1671" xmlns:xlink="http://www.w3.org/1999/xlink" width="495.703125" height="200"><path d="M667.826 0h12.911l-12.91 12.911V0z m393.528 240.106l82.81-0.134c-0.222 42.073 0.09 84.146-0.133 126.22 26.045 0.355 52.135 0.355 78.224 0.355 0.356 27.47 0.446 54.94-0.178 82.455-26 2.226-52.09 1.825-78.18 1.825 0.445 49.864-0.223 99.818 0.445 149.771 26.49-8.014 52.892-16.74 80.006-22.35 0.133 28.761-2.627 57.433-2.315 86.194-25.823 8.059-51.78 15.36-77.824 22.395 2.448 51.289-5.21 102.266-0.935 153.333-1.336 86.55-84.503 157.651-169.717 152.932 0.178-26.847 0.312-53.649-0.09-80.584 42.296 0.89 86.774-26.936 89.044-72.081-0.757-42.563-2.181-85.215-1.068-127.778-29.474 6.144-57.878 16.607-87.352 23.018-0.579-29.384-0.579-58.858 0.668-88.153 29.83-3.829 57.79-14.915 86.506-23.196 0.311-57.522-0.89-115.044 0.846-172.566-29.251-5.343-58.947-2.938-88.465-3.562 0.267-27.158 0.178-54.405 0.044-81.653 29.251-0.089 58.457-0.267 87.708-0.178-0.311-42.117-0.222-84.146-0.044-126.263z m479.054 0a4011.453 4011.453 0 0 1 83.79 0.089c-0.757 175.46-0.179 351.01-0.268 526.514 34.861 0.757 69.766 0.534 104.671 0.133-0.4 27.159 1.647 54.54-1.113 81.653-34.549 3.918-69.587-1.87-104.047 3.562 0.98 47.06 0.089 94.208 0.445 141.312-27.826-0.312-55.652-0.223-83.478-0.134 0.044-47.86-0.446-95.721-0.09-143.627-100.04 0.446-200.08 0.357-300.076 0a2043.993 2043.993 0 0 1-0.312-82.543c100.174-0.312 200.304 0.89 300.389-0.623-0.178-175.416-0.223-350.876 0.089-526.336z m584.748-0.09c27.604 0.936 55.074-2.003 82.677-3.116-0.223 23.196-0.267 46.436 0.178 69.677 98.66 0.757 197.41-0.89 296.07 0.757 8.77 24.576 1.513 54.761 3.65 81.474-227.95-0.267-455.813-0.801-683.764 0.267a2275.729 2275.729 0 0 1-0.357-82.365c99.73 0 199.458-0.133 299.187 0.045 1.958-22.172 2.226-44.433 2.36-66.738z" fill="#18081C" p-id="1672"></path><path d="M1282.36 459.865c2.76-25.51-6.322-56.988 4.452-78.803 70.611-2.405 141.49-0.535 212.28-0.624 0.133 26.535 0.222 53.07-0.357 79.516-72.125 0.356-144.25 0.579-216.375-0.089z m670.72-25.377c25.333-7.391 54.316 1.558 81.118-0.757 0.356 24.175 0.356 48.395 0.178 72.57 87.886 0.445 175.861 1.202 263.88-0.4a1897.962 1897.962 0 0 1 0.758-74.797c25.466 2.315 51.066 2.671 76.577-0.534 6.01 24.932 4.007 50.621 4.274 76.043 52.491-0.09 104.982 0.623 157.473-0.445 0.134 27.692 0.045 55.34 0.401 82.988-247.407-0.445-494.814-0.445-742.222 0 0.045-27.559 0.09-55.073-0.178-82.543 52.269 0.445 104.448-0.534 156.717 0.623 0.222-24.264-1.648-48.618 1.024-72.793zM1282.894 588.22c72.748-6.678 145.764 1.781 218.646-0.356-2.449 25.823-3.562 51.734-2.805 77.735-72.036-0.445-144.117 2.048-216.02-0.089 0.09-25.734 0.223-51.512 0.179-77.29z m600.064 118.428c-0.178-38.912 38.021-71.992 76.488-71.457 120.343-4.72 240.863-0.312 361.294-2.36-0.044 27.514 0.045 55.029-0.623 82.499-109.746 0.089-219.403-0.802-329.016 0.311-27.247 0-27.559 31.344-31.254 50.622 10.017 4.763 20.925 6.722 32.056 6.144 109.568-0.89 219.225 0.222 328.837-0.624-0.044 27.114-0.044 54.228-0.356 81.342-118.784 0-237.568-0.58-356.397 0.089-1.424 21.77-3.116 56.898 27.827 56.987 115.266 1.514 230.622 0.446 345.933 0.535 18.032 1.38 32.412-15.627 31.388-32.68 0.668-81.608-0.267-163.26 0.134-244.958 26.668 0.134 53.337 0.223 79.96-0.312 2.138 93.05 0.446 186.235 0.624 279.374 2.627 43.543-38.6 84.236-82.766 80.896-133.075-0.267-266.329 1.648-399.226-1.513-41.405 7.123-82.944-28.583-84.77-69.232a3889.42 3889.42 0 0 1-0.133-215.707z" fill="#18081C" p-id="1673"></path><path d="M308.001 479.722V445.35a276.257 276.257 0 0 0-36.641-2.671C121.767 442.68 0 562.354 0 709.32c0 90.112 45.857 169.895 115.89 218.201a262.945 262.945 0 0 1-72.927-181.47c0-144.874 118.295-262.99 265.038-266.33" fill="#20F4F2" p-id="1674"></path><path d="M314.368 867.818c66.783 0 121.233-52.18 123.77-117.181l0.223-580.341h107.92a197.632 197.632 0 0 1-3.472-36.73H395.353l-0.267 580.34c-2.493 65.002-56.899 117.181-123.681 117.181-20.035 0-39.758-4.764-57.523-13.98a124.438 124.438 0 0 0 100.486 50.755M747.965 367.26v-32.234a206.58 206.58 0 0 1-111.75-32.634 206.002 206.002 0 0 0 111.75 64.868" fill="#20F4F2" p-id="1675"></path><path d="M636.216 302.392a198.478 198.478 0 0 1-50.399-132.096h-39.535a201.728 201.728 0 0 0 89.978 132.096M271.45 587.598c-68.385 0-123.993 54.628-123.993 121.767a121.544 121.544 0 0 0 66.426 107.742 119.496 119.496 0 0 1-23.463-71.056c0-67.094 55.564-121.767 123.994-121.767a124.356 124.356 0 0 1 36.596 5.654V482.126a275.946 275.946 0 0 0-36.596-2.582c-2.182 0-4.275 0.089-6.412 0.178v113.486a124.216 124.216 0 0 0-36.596-5.61" fill="#FD1A52" p-id="1676"></path><path d="M747.92 367.215v112.64a355.105 355.105 0 0 1-205.111-64.868v294.289c0 146.966-121.767 266.507-271.449 266.507a273.23 273.23 0 0 1-155.514-48.306 272.918 272.918 0 0 0 198.522 85.08c149.638 0 271.405-119.584 271.405-266.55V451.761a355.06 355.06 0 0 0 205.111 64.735v-144.74a207.96 207.96 0 0 1-42.963-4.497" fill="#FD1A52" p-id="1677"></path><path d="M542.809 709.32V415.032a355.06 355.06 0 0 0 205.112 64.779V367.304a206.002 206.002 0 0 1-111.705-64.823 201.683 201.683 0 0 1-89.934-132.14H438.36l-0.267 580.296c-2.538 64.957-56.988 117.18-123.77 117.18a124.483 124.483 0 0 1-100.486-50.754A121.544 121.544 0 0 1 147.41 709.32c0-67.094 55.564-121.767 123.994-121.767 12.377 0.09 24.71 1.96 36.552 5.655v-113.53C161.257 483.06 42.919 601.221 42.919 746.05a262.9 262.9 0 0 0 72.927 181.515 273.274 273.274 0 0 0 155.559 48.306c149.593 0 271.36-119.54 271.36-266.507" fill="#231916" p-id="1678"></path></svg>